<svg width="11" height="11" viewBox="0 0 11 11" fill="none" xmlns="http://www.w3.org/2000/svg">
<g clip-path="url(#clip0_377_351)">
<path d="M5.49935 8.70825C5.59 8.70825 5.67861 8.68137 5.75399 8.63101C5.82936 8.58065 5.8881 8.50906 5.92279 8.42532C5.95748 8.34157 5.96656 8.24941 5.94888 8.1605C5.93119 8.07159 5.88754 7.98993 5.82344 7.92583C5.75934 7.86173 5.67767 7.81808 5.58877 7.80039C5.49986 7.78271 5.4077 7.79178 5.32395 7.82647C5.2402 7.86116 5.16862 7.91991 5.11826 7.99528C5.0679 8.07066 5.04102 8.15927 5.04102 8.24992C5.04102 8.37148 5.0893 8.48806 5.17526 8.57401C5.26121 8.65996 5.37779 8.70825 5.49935 8.70825ZM7.79102 8.70825C7.88167 8.70825 7.97028 8.68137 8.04565 8.63101C8.12102 8.58065 8.17977 8.50906 8.21446 8.42532C8.24915 8.34157 8.25823 8.24941 8.24054 8.1605C8.22286 8.07159 8.17921 7.98993 8.11511 7.92583C8.05101 7.86173 7.96934 7.81808 7.88043 7.80039C7.79152 7.78271 7.69937 7.79178 7.61562 7.82647C7.53187 7.86116 7.46029 7.91991 7.40992 7.99528C7.35956 8.07066 7.33268 8.15927 7.33268 8.24992C7.33268 8.37148 7.38097 8.48806 7.46692 8.57401C7.55288 8.65996 7.66946 8.70825 7.79102 8.70825ZM7.79102 6.87492C7.88167 6.87492 7.97028 6.84804 8.04565 6.79768C8.12102 6.74731 8.17977 6.67573 8.21446 6.59198C8.24915 6.50823 8.25823 6.41608 8.24054 6.32717C8.22286 6.23826 8.17921 6.15659 8.11511 6.0925C8.05101 6.0284 7.96934 5.98474 7.88043 5.96706C7.79152 5.94937 7.69937 5.95845 7.61562 5.99314C7.53187 6.02783 7.46029 6.08658 7.40992 6.16195C7.35956 6.23732 7.33268 6.32594 7.33268 6.41659C7.33268 6.53814 7.38097 6.65472 7.46692 6.74068C7.55288 6.82663 7.66946 6.87492 7.79102 6.87492ZM5.49935 6.87492C5.59 6.87492 5.67861 6.84804 5.75399 6.79768C5.82936 6.74731 5.8881 6.67573 5.92279 6.59198C5.95748 6.50823 5.96656 6.41608 5.94888 6.32717C5.93119 6.23826 5.88754 6.15659 5.82344 6.0925C5.75934 6.0284 5.67767 5.98474 5.58877 5.96706C5.49986 5.94937 5.4077 5.95845 5.32395 5.99314C5.2402 6.02783 5.16862 6.08658 5.11826 6.16195C5.0679 6.23732 5.04102 6.32594 5.04102 6.41659C5.04102 6.53814 5.0893 6.65472 5.17526 6.74068C5.26121 6.82663 5.37779 6.87492 5.49935 6.87492ZM8.70768 1.37492H8.24935V0.916585C8.24935 0.795028 8.20106 0.678449 8.11511 0.592495C8.02915 0.50654 7.91257 0.458252 7.79102 0.458252C7.66946 0.458252 7.55288 0.50654 7.46692 0.592495C7.38097 0.678449 7.33268 0.795028 7.33268 0.916585V1.37492H3.66602V0.916585C3.66602 0.795028 3.61773 0.678449 3.53177 0.592495C3.44582 0.50654 3.32924 0.458252 3.20768 0.458252C3.08612 0.458252 2.96955 0.50654 2.88359 0.592495C2.79764 0.678449 2.74935 0.795028 2.74935 0.916585V1.37492H2.29102C1.92634 1.37492 1.57661 1.51978 1.31874 1.77765C1.06088 2.03551 0.916016 2.38525 0.916016 2.74992V9.16659C0.916016 9.53126 1.06088 9.881 1.31874 10.1389C1.57661 10.3967 1.92634 10.5416 2.29102 10.5416H8.70768C9.07235 10.5416 9.42209 10.3967 9.67995 10.1389C9.93782 9.881 10.0827 9.53126 10.0827 9.16659V2.74992C10.0827 2.38525 9.93782 2.03551 9.67995 1.77765C9.42209 1.51978 9.07235 1.37492 8.70768 1.37492ZM9.16602 9.16659C9.16602 9.28814 9.11773 9.40472 9.03177 9.49068C8.94582 9.57663 8.82924 9.62492 8.70768 9.62492H2.29102C2.16946 9.62492 2.05288 9.57663 1.96693 9.49068C1.88097 9.40472 1.83268 9.28814 1.83268 9.16659V5.04159H9.16602V9.16659ZM9.16602 4.12492H1.83268V2.74992C1.83268 2.62836 1.88097 2.51178 1.96693 2.42583C2.05288 2.33987 2.16946 2.29159 2.29102 2.29159H2.74935V2.74992C2.74935 2.87148 2.79764 2.98806 2.88359 3.07401C2.96955 3.15996 3.08612 3.20825 3.20768 3.20825C3.32924 3.20825 3.44582 3.15996 3.53177 3.07401C3.61773 2.98806 3.66602 2.87148 3.66602 2.74992V2.29159H7.33268V2.74992C7.33268 2.87148 7.38097 2.98806 7.46692 3.07401C7.55288 3.15996 7.66946 3.20825 7.79102 3.20825C7.91257 3.20825 8.02915 3.15996 8.11511 3.07401C8.20106 2.98806 8.24935 2.87148 8.24935 2.74992V2.29159H8.70768C8.82924 2.29159 8.94582 2.33987 9.03177 2.42583C9.11773 2.51178 9.16602 2.62836 9.16602 2.74992V4.12492ZM3.20768 6.87492C3.29833 6.87492 3.38695 6.84804 3.46232 6.79768C3.53769 6.74731 3.59644 6.67573 3.63113 6.59198C3.66582 6.50823 3.67489 6.41608 3.65721 6.32717C3.63952 6.23826 3.59587 6.15659 3.53177 6.0925C3.46767 6.0284 3.38601 5.98474 3.2971 5.96706C3.20819 5.94937 3.11604 5.95845 3.03229 5.99314C2.94854 6.02783 2.87695 6.08658 2.82659 6.16195C2.77623 6.23732 2.74935 6.32594 2.74935 6.41659C2.74935 6.53814 2.79764 6.65472 2.88359 6.74068C2.96955 6.82663 3.08612 6.87492 3.20768 6.87492ZM3.20768 8.70825C3.29833 8.70825 3.38695 8.68137 3.46232 8.63101C3.53769 8.58065 3.59644 8.50906 3.63113 8.42532C3.66582 8.34157 3.67489 8.24941 3.65721 8.1605C3.63952 8.07159 3.59587 7.98993 3.53177 7.92583C3.46767 7.86173 3.38601 7.81808 3.2971 7.80039C3.20819 7.78271 3.11604 7.79178 3.03229 7.82647C2.94854 7.86116 2.87695 7.91991 2.82659 7.99528C2.77623 8.07066 2.74935 8.15927 2.74935 8.24992C2.74935 8.37148 2.79764 8.48806 2.88359 8.57401C2.96955 8.65996 3.08612 8.70825 3.20768 8.70825Z" fill="#FFA454"/>
</g>
<defs>
<clipPath id="clip0_377_351">
<rect width="11" height="11" fill="white"/>
</clipPath>
</defs>
</svg>
