<svg width="19" height="19" viewBox="0 0 19 19" fill="none" xmlns="http://www.w3.org/2000/svg">
<path d="M1.98047 3.3645C1.98047 3.20703 2.04302 3.05601 2.15437 2.94466C2.26572 2.83331 2.41675 2.77075 2.57422 2.77075H3.01597C3.76805 2.77075 4.2193 3.27663 4.47659 3.74688C4.64839 4.06038 4.77268 4.42375 4.87005 4.75309C4.89639 4.75101 4.9228 4.74995 4.94922 4.74992H14.8435C15.5006 4.74992 15.9756 5.3785 15.7951 6.01104L14.3479 11.0848C14.2181 11.5399 13.9436 11.9404 13.5659 12.2255C13.1883 12.5106 12.7279 12.6649 12.2547 12.665H7.54589C7.0689 12.665 6.60511 12.5084 6.2258 12.2192C5.84649 11.93 5.57266 11.5242 5.44639 11.0643L4.84472 8.86975L3.84722 5.50675L3.84643 5.50042C3.72293 5.05154 3.60734 4.63117 3.43476 4.31767C3.2693 4.01288 3.1363 3.95825 3.01676 3.95825H2.57422C2.41675 3.95825 2.26572 3.8957 2.15437 3.78435C2.04302 3.673 1.98047 3.52197 1.98047 3.3645ZM5.99659 8.58159L6.59114 10.75C6.70989 11.179 7.10018 11.4775 7.54589 11.4775H12.2547C12.4698 11.4775 12.6791 11.4074 12.8508 11.2778C13.0225 11.1483 13.1473 10.9663 13.2063 10.7595L14.5814 5.93742H5.21443L5.98551 8.53963L5.99659 8.58159Z" fill="#2F1AC4"/>
<path d="M8.70964 15.0416C8.70964 15.4615 8.54282 15.8642 8.24589 16.1612C7.94895 16.4581 7.54623 16.6249 7.1263 16.6249C6.70638 16.6249 6.30365 16.4581 6.00672 16.1612C5.70978 15.8642 5.54297 15.4615 5.54297 15.0416C5.54297 14.6217 5.70978 14.2189 6.00672 13.922C6.30365 13.6251 6.70638 13.4583 7.1263 13.4583C7.54623 13.4583 7.94895 13.6251 8.24589 13.922C8.54282 14.2189 8.70964 14.6217 8.70964 15.0416ZM7.52214 15.0416C7.52214 14.9366 7.48043 14.8359 7.4062 14.7617C7.33197 14.6875 7.23128 14.6458 7.1263 14.6458C7.02132 14.6458 6.92064 14.6875 6.84641 14.7617C6.77217 14.8359 6.73047 14.9366 6.73047 15.0416C6.73047 15.1466 6.77217 15.2472 6.84641 15.3215C6.92064 15.3957 7.02132 15.4374 7.1263 15.4374C7.23128 15.4374 7.33197 15.3957 7.4062 15.3215C7.48043 15.2472 7.52214 15.1466 7.52214 15.0416Z" fill="#2F1AC4"/>
<path d="M14.2526 15.0416C14.2526 15.4615 14.0858 15.8642 13.7889 16.1612C13.4919 16.4581 13.0892 16.6249 12.6693 16.6249C12.2493 16.6249 11.8466 16.4581 11.5497 16.1612C11.2528 15.8642 11.0859 15.4615 11.0859 15.0416C11.0859 14.6217 11.2528 14.2189 11.5497 13.922C11.8466 13.6251 12.2493 13.4583 12.6693 13.4583C13.0892 13.4583 13.4919 13.6251 13.7889 13.922C14.0858 14.2189 14.2526 14.6217 14.2526 15.0416ZM13.0651 15.0416C13.0651 14.9366 13.0234 14.8359 12.9492 14.7617C12.8749 14.6875 12.7743 14.6458 12.6693 14.6458C12.5643 14.6458 12.4636 14.6875 12.3894 14.7617C12.3151 14.8359 12.2734 14.9366 12.2734 15.0416C12.2734 15.1466 12.3151 15.2472 12.3894 15.3215C12.4636 15.3957 12.5643 15.4374 12.6693 15.4374C12.7743 15.4374 12.8749 15.3957 12.9492 15.3215C13.0234 15.2472 13.0651 15.1466 13.0651 15.0416Z" fill="#2F1AC4"/>
</svg>
