<svg width="15" height="15" viewBox="0 0 15 15" fill="none" xmlns="http://www.w3.org/2000/svg">
<path d="M13.2781 2.26533C12.526 1.51308 11.529 1.05572 10.4683 0.976429C9.40756 0.897134 8.3536 1.20117 7.49808 1.83324C6.59684 1.1629 5.47507 0.858938 4.35869 0.98256C3.24231 1.10618 2.21422 1.64821 1.48148 2.49949C0.74873 3.35077 0.365745 4.44807 0.409647 5.57042C0.453548 6.69277 0.921075 7.7568 1.71808 8.54824L6.99516 13.8253C7.06101 13.8917 7.13935 13.9444 7.22567 13.9804C7.31199 14.0163 7.40457 14.0348 7.49808 14.0348C7.59159 14.0348 7.68417 14.0163 7.77049 13.9804C7.85681 13.9444 7.93515 13.8917 8.001 13.8253L13.2781 8.54824C13.6908 8.1358 14.0182 7.64607 14.2416 7.10704C14.4649 6.56802 14.5799 5.99026 14.5799 5.40678C14.5799 4.82331 14.4649 4.24555 14.2416 3.70652C14.0182 3.1675 13.6908 2.67777 13.2781 2.26533ZM12.2793 7.54949L7.49808 12.3237L2.71683 7.54949C2.29549 7.1264 2.00848 6.58832 1.89178 6.00273C1.77509 5.41715 1.83391 4.81014 2.06088 4.25786C2.28784 3.70558 2.67284 3.23262 3.16757 2.89831C3.66231 2.564 4.24475 2.38322 4.84183 2.37866C5.63949 2.38061 6.40377 2.69906 6.96683 3.26408C7.03268 3.33047 7.11102 3.38316 7.19734 3.41912C7.28365 3.45508 7.37624 3.4736 7.46975 3.4736C7.56325 3.4736 7.65584 3.45508 7.74216 3.41912C7.82847 3.38316 7.90681 3.33047 7.97266 3.26408C8.55231 2.76178 9.30114 2.49847 10.0676 2.52743C10.834 2.55638 11.5609 2.87545 12.101 3.42004C12.6411 3.96464 12.9541 4.69409 12.9767 5.46075C12.9993 6.22742 12.7297 6.97403 12.2227 7.54949H12.2793Z" fill="#2F1AC4"/>
</svg>
