<svg width="24" height="24" viewBox="0 0 24 24" fill="none" xmlns="http://www.w3.org/2000/svg">
<g clip-path="url(#clip0_308_834)">
<g filter="url(#filter0_d_308_834)">
<path d="M21.7114 20.2899L18.0014 16.6099C19.4415 14.8143 20.1389 12.5352 19.9502 10.2412C19.7615 7.94721 18.701 5.81269 16.9869 4.27655C15.2727 2.74041 13.0352 1.91941 10.7343 1.98237C8.43341 2.04534 6.24409 2.98747 4.61651 4.61505C2.98893 6.24263 2.0468 8.43194 1.98384 10.7328C1.92088 13.0337 2.74188 15.2713 4.27801 16.9854C5.81415 18.6996 7.94867 19.76 10.2427 19.9487C12.5367 20.1374 14.8158 19.44 16.6114 17.9999L20.2914 21.6799C20.3843 21.7736 20.4949 21.848 20.6168 21.8988C20.7387 21.9496 20.8694 21.9757 21.0014 21.9757C21.1334 21.9757 21.2641 21.9496 21.3859 21.8988C21.5078 21.848 21.6184 21.7736 21.7114 21.6799C21.8916 21.4934 21.9924 21.2442 21.9924 20.9849C21.9924 20.7256 21.8916 20.4764 21.7114 20.2899ZM11.0014 17.9999C9.6169 17.9999 8.26352 17.5894 7.11238 16.8202C5.96123 16.051 5.06403 14.9578 4.53421 13.6787C4.0044 12.3996 3.86578 10.9921 4.13587 9.63427C4.40597 8.27641 5.07265 7.02912 6.05162 6.05016C7.03059 5.07119 8.27787 4.4045 9.63574 4.13441C10.9936 3.86431 12.4011 4.00293 13.6802 4.53275C14.9592 5.06256 16.0525 5.95977 16.8217 7.11091C17.5908 8.26206 18.0014 9.61544 18.0014 10.9999C18.0014 12.8564 17.2639 14.6369 15.9511 15.9497C14.6384 17.2624 12.8579 17.9999 11.0014 17.9999Z" fill="url(#paint0_linear_308_834)"/>
<path d="M17.6113 16.2971L17.3298 16.6481L17.6493 16.9649L21.3549 20.6405C21.4431 20.7334 21.4924 20.8567 21.4924 20.9849C21.4924 21.1135 21.4428 21.2371 21.3541 21.3301C21.3081 21.3759 21.2536 21.4123 21.1937 21.4372C21.1327 21.4626 21.0674 21.4757 21.0014 21.4757C20.9354 21.4757 20.87 21.4626 20.8091 21.4372C20.7482 21.4119 20.6929 21.3747 20.6464 21.3278L20.6449 21.3264L16.9649 17.6464L16.6481 17.3295L16.2985 17.6099C14.6027 18.9699 12.4502 19.6286 10.2837 19.4504C8.1171 19.2722 6.10117 18.2707 4.65037 16.6517C3.19958 15.0328 2.42419 12.9196 2.48365 10.7465C2.54312 8.57345 3.43291 6.50576 4.97006 4.9686C6.50722 3.43144 8.57491 2.54165 10.748 2.48219C12.921 2.42273 15.0343 3.19811 16.6532 4.64891C18.2721 6.0997 19.2737 8.11564 19.4519 10.2822C19.6301 12.4487 18.9714 14.6012 17.6113 16.2971ZM6.83459 17.2359C8.06796 18.06 9.51801 18.4999 11.0014 18.4999C12.9905 18.4999 14.8981 17.7097 16.3047 16.3032C17.7112 14.8967 18.5014 12.989 18.5014 10.9999C18.5014 9.51654 18.0615 8.0665 17.2374 6.83313C16.4133 5.59976 15.2419 4.63847 13.8715 4.07081C12.501 3.50315 10.993 3.35463 9.53819 3.64401C8.08333 3.9334 6.74696 4.64771 5.69807 5.6966C4.64917 6.7455 3.93487 8.08187 3.64548 9.53673C3.35609 10.9916 3.50462 12.4996 4.07227 13.87C4.63993 15.2405 5.60122 16.4118 6.83459 17.2359Z" stroke="white"/>
</g>
</g>
<defs>
<filter id="filter0_d_308_834" x="-2.01953" y="1.979" width="28.0117" height="27.9966" filterUnits="userSpaceOnUse" color-interpolation-filters="sRGB">
<feFlood flood-opacity="0" result="BackgroundImageFix"/>
<feColorMatrix in="SourceAlpha" type="matrix" values="0 0 0 0 0 0 0 0 0 0 0 0 0 0 0 0 0 0 127 0" result="hardAlpha"/>
<feOffset dy="4"/>
<feGaussianBlur stdDeviation="2"/>
<feComposite in2="hardAlpha" operator="out"/>
<feColorMatrix type="matrix" values="0 0 0 0 0 0 0 0 0 0 0 0 0 0 0 0 0 0 0.25 0"/>
<feBlend mode="normal" in2="BackgroundImageFix" result="effect1_dropShadow_308_834"/>
<feBlend mode="normal" in="SourceGraphic" in2="effect1_dropShadow_308_834" result="shape"/>
</filter>
<linearGradient id="paint0_linear_308_834" x1="1.98047" y1="1.979" x2="25.4303" y2="16.376" gradientUnits="userSpaceOnUse">
<stop stop-color="#F3F9FF"/>
<stop offset="1" stop-color="#F1F0FF"/>
</linearGradient>
<clipPath id="clip0_308_834">
<rect width="24" height="24" fill="white"/>
</clipPath>
</defs>
</svg>
