<svg width="15" height="15" viewBox="0 0 15 15" fill="none" xmlns="http://www.w3.org/2000/svg">
<path d="M9.37634 6.24988H7.50134V4.37488C7.50134 4.20912 7.4355 4.05015 7.31829 3.93294C7.20108 3.81573 7.0421 3.74988 6.87634 3.74988C6.71058 3.74988 6.55161 3.81573 6.4344 3.93294C6.31719 4.05015 6.25134 4.20912 6.25134 4.37488V6.24988H4.37634C4.21058 6.24988 4.05161 6.31573 3.9344 6.43294C3.81719 6.55015 3.75134 6.70912 3.75134 6.87488C3.75134 7.04064 3.81719 7.19961 3.9344 7.31682C4.05161 7.43403 4.21058 7.49988 4.37634 7.49988H6.25134V9.37488C6.25134 9.54064 6.31719 9.69961 6.4344 9.81682C6.55161 9.93403 6.71058 9.99988 6.87634 9.99988C7.0421 9.99988 7.20108 9.93403 7.31829 9.81682C7.4355 9.69961 7.50134 9.54064 7.50134 9.37488V7.49988H9.37634C9.5421 7.49988 9.70108 7.43403 9.81829 7.31682C9.9355 7.19961 10.0013 7.04064 10.0013 6.87488C10.0013 6.70912 9.9355 6.55015 9.81829 6.43294C9.70108 6.31573 9.5421 6.24988 9.37634 6.24988ZM13.5701 12.6811L11.2513 10.3811C12.1514 9.25889 12.5873 7.83444 12.4694 6.40069C12.3514 4.96694 11.6886 3.63287 10.6173 2.67278C9.54595 1.7127 8.14747 1.19957 6.70942 1.23892C5.27137 1.27827 3.90305 1.86711 2.88581 2.88434C1.86857 3.90158 1.27974 5.2699 1.24039 6.70796C1.20104 8.14601 1.71416 9.54449 2.67425 10.6158C3.63433 11.6872 4.96841 12.35 6.40216 12.4679C7.83591 12.5858 9.26035 12.1499 10.3826 11.2499L12.6826 13.5499C12.7407 13.6085 12.8098 13.655 12.886 13.6867C12.9621 13.7184 13.0438 13.7348 13.1263 13.7348C13.2089 13.7348 13.2905 13.7184 13.3667 13.6867C13.4429 13.655 13.512 13.6085 13.5701 13.5499C13.6827 13.4333 13.7457 13.2776 13.7457 13.1155C13.7457 12.9534 13.6827 12.7977 13.5701 12.6811ZM6.87634 11.2499C6.01105 11.2499 5.16519 10.9933 4.44572 10.5126C3.72626 10.0318 3.1655 9.34855 2.83437 8.54912C2.50324 7.74969 2.4166 6.87003 2.58541 6.02136C2.75422 5.17269 3.1709 4.39314 3.78275 3.78129C4.39461 3.16943 5.17416 2.75275 6.02282 2.58394C6.87149 2.41513 7.75116 2.50177 8.55058 2.83291C9.35001 3.16404 10.0333 3.72479 10.514 4.44426C10.9948 5.16372 11.2513 6.00959 11.2513 6.87488C11.2513 8.0352 10.7904 9.148 9.96994 9.96847C9.14946 10.7889 8.03667 11.2499 6.87634 11.2499Z" fill="#2F1AC4"/>
</svg>
